<?xml version="1.0" encoding="utf-8"?>
<!-- Generator: Adobe Illustrator 27.5.0, SVG Export Plug-In . SVG Version: 6.00 Build 0)  -->
<svg version="1.1" id="Ñëîé_1" xmlns="http://www.w3.org/2000/svg" xmlns:xlink="http://www.w3.org/1999/xlink" x="0px" y="0px"
	 viewBox="0 0 2600 2000" style="enable-background:new 0 0 2600 2000;" xml:space="preserve">
<rect id="_x31_3" style="fill:#FFFFFF;" width="2600" height="2000"/>
<g>
	<g id="_x31_2">
		<path id="_x31_3_4_" style="fill:#CFDDF9;" d="M204.376,1612.958c0,0-15.277,44.614,48.011,55.784
			c86.565,15.278,576,56.269,452.56,86.773c-69.683,17.219,54.259,39.752,393.665,48.362
			c339.405,8.609,921.798-25.125,725.948-75.04c-195.85-49.914,602.096-12.053,553.491-115.878H204.376z"/>
		<path style="fill:#D4E8FF;" d="M587.036,1612.379c0,0-246.042-652.449-61.56-791.261
			c123.308-92.783,243.695,140.813,399.695,32.61c138.884-96.332,45.232-326.648,185.196-429.923
			c217.68-160.618,444.117,529.164,639.284,426.374c307.003-161.693,494.685,93.384,281.5,763.39L587.036,1612.379z"/>
		<path style="fill:#DCE6FF;" d="M386.456,1561.008c-4.303-11.921-8.562-24.273-12.655-36.712l10.089-2.713
			c4.067,12.359,8.297,24.631,12.572,36.472L386.456,1561.008z M2191.352,1545.614l-10.446-1.166
			c1.734-12.689,3.381-25.469,4.896-37.984l10.463,1.035C2194.746,1520.057,2193.093,1532.881,2191.352,1545.614z M362.181,1487.316
			c-3.684-12.294-7.257-24.817-10.62-37.22l10.223-2.265c3.343,12.329,6.894,24.776,10.556,36.997L362.181,1487.316z
			 M2200.574,1469.32l-10.478-0.895c1.332-12.741,2.565-25.557,3.665-38.091l10.492,0.751
			C2203.15,1443.668,2201.912,1456.532,2200.574,1469.32z M341.944,1412.657c-3.04-12.525-5.933-25.19-8.598-37.643l10.334-1.807
			c2.648,12.376,5.523,24.963,8.544,37.41L341.944,1412.657z M2207.275,1392.799l-10.505-0.601
			c0.891-12.732,1.673-25.575,2.322-38.17l10.514,0.443C2208.954,1367.119,2208.17,1380.015,2207.275,1392.799z M325.803,1337.184
			c-2.341-12.679-4.508-25.463-6.44-38l10.424-1.313c1.92,12.453,4.073,25.152,6.398,37.747L325.803,1337.184z M2211.213,1316.108
			l-10.522-0.276c0.411-12.788,0.694-25.645,0.842-38.212l10.525,0.101C2211.909,1290.346,2211.626,1303.262,2211.213,1316.108z
			 M314.08,1261.029c-1.569-12.806-2.935-25.686-4.059-38.281l10.491-0.766c1.117,12.502,2.472,25.287,4.03,38L314.08,1261.029z
			 M2201.576,1239.405c-0.124-12.798-0.393-25.65-0.8-38.2l10.522-0.278c0.408,12.615,0.679,25.533,0.804,38.395L2201.576,1239.405z
			 M307.261,1184.366c-0.698-12.881-1.161-25.814-1.376-38.44l10.525-0.147c0.213,12.52,0.672,25.346,1.364,38.122L307.261,1184.366
			z M2199.085,1163.038c-0.722-12.781-1.612-25.605-2.64-38.116l10.496-0.706c1.036,12.584,1.929,25.482,2.656,38.336
			L2199.085,1163.038z M316.509,1107.644l-10.523-0.196c0.293-12.915,0.858-25.853,1.68-38.45l10.508,0.56
			C317.359,1082.035,316.799,1094.848,316.509,1107.644z M2192.793,1086.882c-1.406-12.778-2.999-25.542-4.732-37.935l10.442-1.194
			c1.745,12.477,3.348,25.325,4.764,38.187L2192.793,1086.882z M321.511,1031.573l-10.473-0.951
			c1.43-12.867,3.173-25.728,5.181-38.225l10.416,1.368C324.649,1006.125,322.925,1018.845,321.511,1031.573z M2182.168,1011.157
			c-2.19-12.698-4.594-25.348-7.145-37.599l10.343-1.761c2.573,12.348,4.996,25.097,7.203,37.894L2182.168,1011.157z
			 M937.319,1009.815c-14.626-2.085-25.205-8.103-39.859-18.497l6.653-7.373c12.838,9.081,22.11,14.529,34.328,16.409
			L937.319,1009.815z M973.837,987.176l-9.374-4.328c4.818-8.529,9.078-20.365,12.661-35.18l10.283,2.032
			C983.579,965.532,979.14,977.79,973.837,987.176z M866.568,964.028c-8.385-8.441-17.346-18.156-27.394-29.699l8.271-5.884
			c9.907,11.38,18.724,20.94,26.955,29.226L866.568,964.028z M333.666,956.225l-10.333-1.813c2.727-12.7,5.812-25.363,9.17-37.639
			l10.218,2.285C339.405,931.177,336.358,943.682,333.666,956.225z M2166.515,936.207c-3.117-12.567-6.479-25.026-9.994-37.03
			l10.177-2.434c3.548,12.12,6.942,24.698,10.087,37.383L2166.515,936.207z M994.489,911.407l-10.439-1.214
			c1.616-11.358,3.065-23.795,4.429-38.023l10.487,0.822C997.589,887.352,996.125,899.918,994.489,911.407z M813.394,903.673
			c-8.556-10.445-17.43-21.487-25.077-31.015l8.52-5.587c7.632,9.511,16.488,20.529,25.016,30.94L813.394,903.673z
			 M1584.003,902.891c-8.197,0-16.24-2.214-23.904-6.58l5.612-8.05c11.513,6.57,22.84,6.585,35.07,1.345l4.528,8.589
			C1598.078,901.311,1590.91,902.891,1584.003,902.891z M353.917,882.389l-10.066-2.782c4.182-12.363,8.77-24.659,13.638-36.546
			l9.871,3.303C362.563,858.08,358.04,870.201,353.917,882.389z M1639.728,873.318l-7.733-6.455
			c7.981-7.813,16.536-17.452,26.154-29.466l8.527,5.579C1656.809,855.3,1647.995,865.225,1639.728,873.318z M1530.17,866.776
			c-6.812-9.499-13.562-20.686-20.637-34.199l9.514-4.07c6.873,13.128,13.4,23.953,19.956,33.094L1530.17,866.776z
			 M2144.892,862.563c-4.24-12.329-8.764-24.465-13.448-36.072l9.889-3.261c4.741,11.75,9.32,24.033,13.611,36.508L2144.892,862.563
			z M763.373,841.637c-9.63-11.897-17.655-21.665-25.257-30.738l8.391-5.744c7.637,9.116,15.695,18.923,25.36,30.864
			L763.373,841.637z M1002.132,834.565l-10.504-0.615c0.798-11.148,1.61-23.677,2.482-38.305l10.51,0.512
			C1003.746,810.82,1002.932,823.383,1002.132,834.565z M383.137,811.142l-9.63-3.842c5.778-11.83,11.936-23.447,18.479-34.807
			l9.333,4.399C394.881,788.07,388.824,799.5,383.137,811.142z M1690.79,811.14l-8.795-5.228
			c7.48-10.28,15.206-21.172,23.027-32.174l8.855,5.144C1706.037,789.912,1698.302,800.813,1690.79,811.14z M1492.59,797.068
			c-4.768-10.81-9.694-22.605-15.061-36.057l9.901-3.228c5.328,13.352,10.214,25.05,14.938,35.762L1492.59,797.068z
			 M2115.961,791.134c-5.659-11.916-11.645-23.491-17.792-34.404l9.381-4.317c6.25,11.096,12.334,22.861,18.084,34.967
			L2115.961,791.134z M712.128,780.749c-9.551-10.717-18.441-20.256-27.178-29.161l7.874-6.314
			c8.849,9.019,17.844,18.67,27.501,29.505L712.128,780.749z M1006.81,757.775l-10.513-0.479c0.709-12.712,1.413-25.43,2.165-38.372
			l10.511,0.499C1008.223,732.357,1007.518,745.069,1006.81,757.775z M1736.953,746.744l-8.781-5.246
			c8.794-12.029,16.66-22.435,24.047-31.811l8.573,5.52C1753.476,724.492,1745.678,734.808,1736.953,746.744z M422.194,744.059
			l-8.872-5.121c8.271-11.71,16.799-22.286,25.348-31.434l8.041,6.14C438.463,722.47,430.215,732.703,422.194,744.059z
			 M1463.474,724.701c-4.827-12.787-9.563-25.582-13.559-36.411l9.985-3.011c3.991,10.814,8.719,23.588,13.536,36.348
			L1463.474,724.701z M656.009,724.035c-10.758-9.469-21.336-17.833-31.44-24.861l6.419-7.541
			c10.426,7.252,21.315,15.86,32.364,25.584L656.009,724.035z M2077.733,723.628c-7.542-11.126-15.45-21.648-23.504-31.275
			l8.394-5.74c8.26,9.873,16.364,20.654,24.083,32.043L2077.733,723.628z M476.234,687.757l-6.384-7.565
			c12.57-8.668,25.652-14.919,38.883-18.579l3.08,9.099C499.779,674.04,487.808,679.775,476.234,687.757z M1786.179,684.847
			l-8.177-5.991c9.871-11.01,19.225-20.485,28.595-28.964l7.446,6.725C1804.933,664.861,1795.818,674.095,1786.179,684.847z
			 M1011.332,681.105l-10.507-0.566c0.911-13.831,1.816-26.39,2.766-38.397l10.499,0.679
			C1013.143,654.79,1012.241,667.313,1011.332,681.105z M589.769,679.113c-13.134-5.908-26.053-9.68-38.398-11.209l1.429-9.427
			c13.481,1.67,27.497,5.747,41.658,12.117L589.769,679.113z M2027.151,663.732c-10.133-9.385-20.626-17.669-31.184-24.621
			l6.198-7.691c11.034,7.265,21.975,15.901,32.52,25.667L2027.151,663.732z M1436.49,651.88c-5.236-14.157-9.551-25.7-13.58-36.328
			l9.956-3.085c4.038,10.65,8.362,22.215,13.605,36.395L1436.49,651.88z M1845.544,632.328l-6.033-7.797
			c12.945-8.187,26.02-14.25,38.862-18.02l3.25,9.05C1869.775,619.04,1857.636,624.682,1845.544,632.328z M1960.392,620.672
			c-13.036-4.971-26.232-8.047-39.22-9.144l0.978-9.474c14.061,1.188,28.304,4.502,42.332,9.851L1960.392,620.672z M1017.458,604.62
			l-10.485-0.842c1.312-13.35,2.739-26.243,4.242-38.322l10.46,1.064C1020.181,578.525,1018.762,591.343,1017.458,604.62z
			 M1408.905,579.363c-5.086-12.833-9.879-24.565-14.653-35.863l9.833-3.395c4.8,11.361,9.618,23.153,14.729,36.049
			L1408.905,579.363z M1027.034,528.58l-10.418-1.361c2.129-13.322,4.469-26.133,6.956-38.078l10.344,1.759
			C1031.457,502.713,1029.141,515.39,1027.034,528.58z M1378.615,507.973c-5.656-12.298-11.356-24.065-16.945-34.972l9.551-3.999
			c5.647,11.021,11.405,22.904,17.114,35.318L1378.615,507.973z M1042.854,453.665l-10.212-2.306
			c3.671-13.287,7.719-25.802,12.03-37.199l9.959,3.078C1050.416,428.382,1046.453,440.638,1042.854,453.665z M1342.977,438.853
			c-6.923-11.786-13.994-22.851-21.018-32.886l8.894-5.088c7.166,10.239,14.372,21.513,21.422,33.512L1342.977,438.853z
			 M1070.438,382.379l-9.439-4.211c6.911-12.659,14.576-23.852,22.78-33.269l8.268,5.888
			C1084.296,359.683,1077.025,370.312,1070.438,382.379z M1297.834,375.106c-9.197-10.422-18.69-19.656-28.214-27.441l7.061-7.057
			c9.945,8.13,19.831,17.741,29.382,28.565L1297.834,375.106z M1121.414,326.124l-5.674-8.014
			c12.469-7.214,26.207-11.905,40.832-13.942l1.602,9.404C1145.007,315.406,1132.64,319.629,1121.414,326.124z M1236.41,326.118
			c-12.261-5.975-25.033-10.06-37.962-12.141l1.845-9.368c14.032,2.259,27.864,6.678,41.111,13.134L1236.41,326.118z"/>
		<path style="fill:#EEF7FF;" d="M2264.404,1335.557c-87.346-12.166-79.439,170.676-203.945,170.676
			c-113.835,0-174.75-408.506-299.668-325.422c-502.199,334.018-111.456-234.374-449.14-245.484
			c-152.691-5.024-254.437,147.974-291.957,418.862c-54.388,244.892-180.52-186.783-310.324-146.647
			c-82.497,25.508-73.049,298.691-186.884,298.691c-124.505,0-116.303-153.75-203.649-141.584
			c-94.042,13.099-115.263,251.482-115.263,251.482h2175.713C2379.287,1616.131,2358.446,1348.656,2264.404,1335.557z"/>
		<path style="fill:#DCE6FF;" d="M2180.707,1527.463c-80.356-5.195-67.243,41.74-181.785,41.74
			c-104.725,0-101.848-105.189-171.929-127.544c-129.058-41.169-235.456,167.192-285.491,62.62
			c-95.031-277.475-372.194-416.627-500.059,0c-50.035,104.572-167.043-82.022-285.491-62.62
			c-72.91,11.942-67.204,127.544-171.929,127.544c-114.542,0-101.429-46.935-181.785-41.74
			c-86.517,5.594-112.358,88.668-112.358,88.668h2003.185C2293.065,1616.131,2267.224,1533.057,2180.707,1527.463z"/>
	</g>
	<path id="_x31_1" style="fill:#9358E0;" d="M1614.178,848.873c0.274-95.874-11.404-184.082-27.776-260.444
		c-3.609,10.963-35.914,42.683-42.898,35.91c-7.742-7.699,30.667-46.928,40.739-45.772c-1.153-5.178-2.324-10.302-3.516-15.364
		c-3.886,10.372-42.898,38.991-49.197,30.935c-6.461-8.798,37.504-41.634,47.285-38.958c-1.545-6.38-3.117-12.664-4.712-18.849
		c-4.557,10.345-42.52,37.915-48.632,29.995c-6.266-8.737,35.997-40.426,46.282-38.964c-1.639-6.172-3.294-12.266-4.97-18.228
		c-3.139,9.901-49.921,34.355-55.086,24.931c-5.089-9.748,44.633-35.639,53.418-30.774c-1.647-5.754-3.304-11.426-4.974-16.973
		c-4.83,9.724-49.04,32.509-54.081,23.403c-4.765-9.603,41.727-33.997,51.741-31.065c-2.044-6.641-4.097-13.127-6.153-19.448
		c-5.131,9.681-48.836,32.118-53.83,23.077c-4.7-9.527,40.915-33.553,51.202-31.089c-1.615-4.856-3.228-9.585-4.836-14.236
		c-5.722,8.985-54.302,24.592-57.799,14.625c-2.999-10.089,45.105-25.956,55.151-22.214c-2.334-6.605-4.573-12.822-6.921-19.118
		c-6.48,8.752-53.696,23.751-57.134,13.954c-2.947-9.865,43.372-25.369,53.97-22.376c-1.818-4.787-3.635-9.48-5.446-14.079
		c-5.994,8.309-59.607,13.646-60.823,2.876c-0.761-10.355,48.458-15.567,57.93-10.157c-2.266-5.649-4.519-11.143-6.753-16.484
		c-6.336,8.144-59.364,13.394-60.609,2.676c-0.769-10.238,47.579-15.471,57.369-10.351c-2.438-5.719-4.847-11.245-7.216-16.575
		c-9.356,6.42-55.828,10.279-56.934,0.382c-1.184-9.008,40.316-14.721,51.868-11.621c-2.375-5.192-4.698-10.172-6.96-14.931
		c-8.949,5.948-59.235,2.052-58.722-8.431c0.424-9.16,42.697-7.599,53.461-2.485c-2.109-4.312-4.148-8.404-6.109-12.282
		c-7.362,6.992-61.547-0.507-60.139-11.318c1.31-9.495,45.461-4.436,55.285,1.855c-3.051-5.867-5.852-11.101-8.355-15.678
		c-8.573,6.013-60.263-1.289-59.003-11.901c0.907-8.955,42.189-4.887,52.781,0.758c-2.329-4.077-4.13-7.12-5.311-9.083
		c-10.373-3.172-39.994-43.225-31.804-49.668c3.887-2.911,15.48,5.997,25.893,19.898c12.638,16.122,10.136,22.575,18.408,35.427
		c-1.033-12.006,10.822-51.118,19.295-48.506c10.638,2.744-3.289,56.861-12.747,60.267c2.32,4.258,4.883,9.057,7.647,14.366
		c0.822-11.765,21.458-49.812,29.745-45.466c9.592,5.022-14.584,53.004-24.493,55.7c2.311,4.57,4.73,9.444,7.238,14.604
		c1.926-11.665,25.681-47.546,33.505-42.504c8.964,5.814-18.351,50.237-28.459,53.03c2.26,4.78,4.579,9.776,6.945,14.975
		c2.708-11.42,29.952-45.673,37.446-39.915c8.348,6.579-22.522,47.938-32.865,50.11c2.151,4.849,4.334,9.86,6.54,15.025
		c3.403-10.957,35.995-43.087,43.066-36.281c7.445,7.615-28.67,44.766-39.184,45.469c1.974,4.728,3.964,9.572,5.963,14.538
		c3.756-10.375,42.958-39.178,49.285-31.098c6.247,8.723-35.822,40.291-46.156,38.949c2.048,5.188,4.103,10.49,6.16,15.916
		c3.196-10.371,43.215-39.961,49.652-31.775c6.394,8.781-36.995,41.227-46.956,38.961c2.212,5.921,4.316,11.757,6.508,17.932
		c3.884-10.372,42.899-38.994,49.199-30.938c6.284,8.746-36.14,40.541-46.382,38.967c1.516,4.367,3.036,8.82,4.558,13.369
		c5.85-9.544,48.32-31.117,53.174-22.24c4.603,9.376-39.545,32.802-50.243,31.114c1.796,5.497,3.59,11.089,5.378,16.83
		c5.24-9.663,48.762-31.973,53.736-22.956c4.704,9.532-40.968,33.582-51.237,31.087c1.778,5.84,3.544,11.806,5.298,17.88
		c4.166-9.811,49.42-33.288,54.531-24.05c4.9,9.688-43.054,34.743-52.549,30.953c1.583,5.598,3.149,11.308,4.701,17.092
		c5.842-9.15,52.254-27.059,56.289-17.462c3.641,9.965-44.165,28.912-54.17,25.418c1.627,6.22,3.224,12.566,4.801,18.986
		c3.998-9.54,53.417-28.957,57.538-19.002c3.928,10.212-47.493,30.325-56.073,24.984c1.625,6.754,3.212,13.632,4.769,20.595
		c5.656-8.772,56.656-20.947,59.364-10.584c2.281,10.488-48.889,22.807-57.831,17.466c16.963,77.836,29.155,168.136,28.874,266.433
		L1614.178,848.873z"/>
	<path id="_x31_0_1_" style="fill:#FCB4B4;" d="M1516.075,908.477c68.969-81.085,122.308-164.239,163.176-240.715
		c-10.921,6.706-61.048,10.438-62.114-0.312c-1.043-12.077,59.644-17.798,67.354-9.598c2.735-5.216,5.415-10.399,8.035-15.546
		c-10.731,6.008-64.323,2.3-63.887-9.045c0.83-12.091,61.644-8.408,68.018,0.872c3.265-6.516,6.437-12.97,9.519-19.358
		c-11.282,5.503-63.229,1.659-62.734-9.437c0.952-11.9,59.501-8.465,67.172,0.148c3.035-6.407,6.002-12.76,8.855-19.017
		c-9.761,6.143-66.952-6.665-64.576-18.358c2.675-11.912,63.391,1.785,67.35,12.208c2.729-6.059,5.391-12.056,7.952-17.956
		c-11.068,4.781-64.883-7.598-62.628-18.932c2.846-11.557,59.749,1.094,66.137,10.759c3.029-7.097,5.938-14.067,8.727-20.899
		c-11.291,4.529-64.429-7.784-62.181-19.029c2.846-11.446,58.743,0.888,65.697,10.352c2.113-5.276,4.136-10.44,6.106-15.536
		c-11.291,3.515-63.667-18.083-59.487-29.04c4.693-10.703,56.849,10.333,62.682,20.708c2.753-7.273,5.323-14.145,7.832-21.17
		c-11.771,2.77-62.544-18.363-58.435-29.133c4.574-10.476,54.954,9.586,61.796,19.721c1.892-5.366,3.707-10.636,5.47-15.838
		c-11.043,2.736-60.306-31.167-53.618-41.169c6.777-9.323,52.229,21.535,56.389,32.911c2.127-6.408,4.159-12.682,6.094-18.806
		c-11.214,2.356-59.925-31.207-53.297-41.185c6.687-9.23,51.422,20.992,56.056,32.351c2.033-6.597,3.952-13.005,5.765-19.223
		c-68.435-25.883-60.82-72.967,3.762-13.163c1.708-6.1,3.312-11.991,4.806-17.645c-11.851-1.375-51.688-40.727-43.737-49.248
		c6.925-7.461,41.638,24.161,47.1,36.215c1.302-5.163,2.51-10.095,3.626-14.786c-11.256,0.644-51.811-44.555-42.866-52.711
		c7.917-7.11,41.718,28.827,45.538,41.205c1.618-7.154,3-13.608,4.159-19.277c-11.58-1.05-50.165-44.298-41.489-52.392
		c7.19-6.941,39.271,26.105,44.204,38.485c0.954-5.151,1.604-9,2.009-11.509c-6.519-10.126-2.916-65.318,8.646-64.909
		c5.382,0.318,8.824,16.182,7.686,35.433c-0.844,22.73-7.591,26.406-9.794,43.232c7.732-10.919,45.824-35.58,51.135-27.29
		c7.052,9.953-43.561,45.853-54.019,41.954c-1.086,5.277-2.354,11.177-3.818,17.667c9.131-9.387,53.908-26.851,57.818-17.224
		c4.532,11.135-50.375,34.484-60.704,29.66c-1.32,5.542-2.753,11.386-4.33,17.572c9.997-8.509,55.86-21.898,58.879-12.013
		c3.432,11.357-51.586,29.437-62.154,24.553c-1.512,5.677-3.127,11.573-4.849,17.682c10.481-7.742,58.144-17.254,60.372-6.999
		c2.361,11.563-53.465,24.495-63.791,18.92c-1.652,5.65-3.4,11.472-5.231,17.43c10.739-6.851,61.412-10.726,62.528,0.115
		c0.852,11.794-56.407,17.398-65.823,10.454c-1.715,5.421-3.513,10.967-5.377,16.607c10.616-6.11,64.521-2.424,64.092,8.965
		c-0.957,11.876-59.27,8.475-67.062-0.075c-1.986,5.874-4.034,11.832-6.183,17.915c10.144-6.503,65.288-2.896,64.876,8.659
		c-0.874,12.03-60.937,8.428-67.748-0.639c-2.356,6.611-4.767,13.066-7.333,19.875c10.729-6.009,64.327-2.303,63.892,9.043
		c-0.943,11.92-59.706,8.46-67.26-0.218c-1.846,4.789-3.75,9.654-5.721,14.603c11.803-3.897,63.274,8.262,61.026,19.268
		c-2.82,11.25-57.044-0.543-64.902-9.643c-2.419,5.948-4.907,11.975-7.506,18.125c11.37-4.436,64.263,7.853,62.016,19.064
		c-2.846,11.453-58.809-0.902-65.727-10.379c-2.68,6.226-5.46,12.55-8.327,18.957c10.564-5.331,65.764,7.21,63.473,18.706
		c-2.791,11.727-61.41-1.412-66.742-11.434c-2.671,5.881-5.438,11.845-8.268,17.86c11.513-3.569,63.7,14.524,60.24,25.552
		c-4.057,11.058-58.171-7.152-64.149-17.288c-3.08,6.439-6.276,12.965-9.541,19.538c10.23-5.221,66.046,13.748,62.403,25.142
		c-3.992,11.473-62.005-8.34-65.45-19.021c-3.464,6.892-7.05,13.86-10.722,20.88c11.085-3.382,63.05,22.861,57.916,33.587
		c-5.585,10.527-57.798-15.715-61.55-26.654c-41.423,78.15-95.826,163.447-166.538,246.581L1516.075,908.477z"/>
	<path id="_x39_" style="fill:#8A9EDD;" d="M2190.345,772.796c7.484,25.595,12.085,48.464,12.689,61.099
		c7.593-13.487,14.889-25.901,21.867-37.315c-10.351-9.234-30.456-136.335-18.031-138.865
		c11.772-0.342,27.845,107.509,24.914,127.762c7.987-12.702,15.524-24.055,22.57-34.174c-10.257-5.287-3.952-143.477,8.73-141.972
		c5.406,0.276,8.155,32.478,6.139,71.924c-1.285,25.132-4.195,47.126-7.536,59.718c9.484-13.117,17.966-23.865,25.348-32.6
		c-9.31-6.699,23.476-141.851,35.596-137.811c10.849,3.951-14.741,107.409-25.058,125.84c21.747-22.329,26.64-31.624,65.35-59.477
		c75.189-54.431,86.92-38.193,11.461,15.911c-36.788,28.528-49.85,23.469-74.227,52.753c17.04-8.329,130.313-20.265,132.996-8.447
		c0.995,12.68-130.244,24.987-139.984,16.516c-7.716,9.141-16.678,20.521-26.767,34.576c15.538-7.243,134.874-6.948,136.179,5.402
		c-0.478,12.706-131.773,10.568-140.832,1.165c-7.305,10.42-15.145,22.166-23.483,35.402c17.373-6.592,132.465-6.12,133.848,5.997
		c-1.232,12.564-126.32,10.488-138.868,2.063c-7.373,11.95-15.103,25.008-23.169,39.299c17.425-6.573,132.388-6.094,133.77,6.015
		c-1.341,12.522-125.196,10.48-138.388,2.243c-6.627,11.938-13.469,24.69-20.507,38.291c16.254-6.996,133.99-6.642,135.343,5.626
		c-1.129,12.592-127.207,10.497-139.221,1.916c-6.493,12.943-13.54,25.813-20.948,37.67c16.131-4.974,134.781,13.49,134.16,25.923
		c-2.906,12.327-128.361-9.046-138.28-19.43c-8.401,12.968-17.317,25.103-26.725,36.351c12.468-6.045,137.637,24.004,135.218,36.451
		c-2.345,12.544-135.95-21.399-138.35-32.749c-12.124,14.089-25.118,26.868-39.349,38.418c16.571-0.9,127.149,47.949,123.281,59.815
		c-5.723,11.336-123.719-42.832-129.111-55.216c-15.028,11.566-30.86,21.341-47.333,29.211
		c16.909,2.583,116.001,69.271,110.209,80.261c-7.63,10.15-114.231-63.785-117.43-76.941c-43.912,19.29-76.428,18.457-77.827,18.409
		l0.26-7.902c0.324,0.011,31.602,0.746,73.203-17.235c-11.457-11.775-46.335-128.014-34.775-132.767
		c12.26-1.972,44.838,112.187,42.243,129.381c13.778-6.533,29.411-15.604,45.811-28.171
		c-11.932-5.387-59.011-127.807-47.234-132.593c12.161-3.401,55.389,114.225,51.981,128.872
		c12.771-10.232,25.925-22.614,38.961-37.568c-12.316-4.355-69.108-122.689-57.747-128.393
		c11.864-4.156,63.468,107.555,62.068,123.336c8.631-10.308,17.183-21.765,25.507-34.521c-11.637-0.371-70.94-124.435-59.11-129.226
		c11.841-4.412,64.549,109.759,62.165,124.451c7.042-11.114,14.036-23.44,20.559-36.388c-12.95-8.438-66.654-120.302-55.794-126.658
		c11.378-3.671,58.461,97.058,60.87,116.756c7.05-13.648,13.897-26.442,20.529-38.429c-11.487-5.977-49.351-132.051-37.219-135.868
		C2166.06,705.386,2179.26,734.886,2190.345,772.796z"/>
	<path id="_x38_" style="fill:#FCB4B4;" d="M444.22,1002.952c1.388,26.63,4.598,49.736,8.2,61.861
		c-11.621-10.223-22.607-19.53-32.963-28c6.72-12.134-16.277-138.744-28.84-137.028c-11.224,3.564,9.221,110.673,18.677,128.822
		c-11.734-9.351-22.597-17.579-32.59-24.803c7.936-8.378-43.653-136.732-55.126-131.123c-5.011,2.046,3.028,33.349,17.958,69.916
		c9.513,23.298,19.523,43.096,26.835,53.879c-13.284-9.249-24.839-16.593-34.692-22.4c6.575-9.398-69.005-126.139-79.111-118.324
		c-8.935,7.313,49.385,96.514,65.21,110.505c-27.901-13.895-35.59-21.052-81.325-34.559c-88.946-26.546-94.656-7.346-5.563,18.803
		c44.145,14.778,54.803,5.69,87.483,25.28c-18.835-2.235-129.694,23.908-128.324,35.949c3.248,12.297,131.188-19.428,137.585-30.64
		c10.301,6.08,22.519,13.862,36.684,23.797c-17.058-1.705-129.601,37.983-126.754,50.071c4.647,11.836,127.87-33.543,133.315-45.409
		c10.336,7.422,21.616,15.921,33.857,25.661c-18.575-0.485-127.054,37.97-124.358,49.863
		c5.312,11.452,122.696-31.818,131.758-43.914c10.906,8.844,22.514,18.617,34.848,29.443
		c-18.618-0.449-126.973,37.969-124.278,49.854c5.401,11.377,121.633-31.453,131.364-43.584
		c10.198,9.079,20.867,18.857,32.001,29.37c-17.652-1.235-128.666,37.98-125.892,50.007c5.224,11.513,123.537-32.101,132.042-44.169
		c10.403,10.073,21.305,19.893,32.214,28.639c-16.869,0.632-122.764,57.244-118.072,68.775
		c6.814,10.676,118.172-50.929,124.105-64.007c12.212,9.466,24.636,17.975,37.23,25.486
		c-13.765-1.588-121.988,68.111-115.594,79.061c6.356,11.066,121.256-65.095,119.772-76.601
		c16.096,9.294,32.582,17.066,49.829,23.267c-15.938,4.623-104.18,87.25-96.61,97.172c9.145,8.81,102.633-81.286,103.633-94.756
		c18.005,5.954,36.177,9.952,54.324,11.941c-15.107,8.023-86.616,103.694-77.52,112.154c10.553,7.06,86.757-97.93,85.432-111.406
		c47.819,3.706,78.235-7.819,79.54-8.326l-2.855-7.373c-0.302,0.117-29.582,11.141-74.788,7.906
		c6.926-14.897,1.459-136.134-11.022-136.802c-12.223,2.188-5.273,120.7,2.855,136.073c-15.162-1.617-32.914-5.016-52.544-11.462
		c9.484-9.025,13.493-140.125,0.796-140.753c-12.602,0.806-14.559,126.109-6.505,138.808c-15.433-5.44-31.938-12.784-49.182-22.594
		c10.187-8.178,24.714-138.628,12.106-140.261c-12.571-0.005-24.388,122.48-17.854,136.914c-11.551-6.88-23.406-14.87-35.477-24.16
		c10.861-4.193,25.866-140.881,13.118-141.497c-12.633-0.254-24.68,124.918-17.577,137.999
		c-10.317-8.165-20.989-17.489-31.422-27.557c9.437-12.241,23.185-135.565,10.836-137.977
		c-11.953,0.293-23.128,110.919-18.897,130.308c-11.162-10.554-21.85-20.369-32.068-29.493c8.868-9.435,2.972-140.94-9.739-140.537
		C444.881,931.304,442.164,963.508,444.22,1002.952z"/>
	<path id="_x37__6_" style="fill:#8A9EDD;" d="M503.938,772.032c-4.186-7.996,67.223-56.714,79.551-58.731
		c-10.376-4.882-22.121-11.661-34.417-21.022c-3.662,8.963-89.307,48.948-93.432,40.711c-2.802-8.627,77.23-44.591,89.249-43.979
		c-9.454-7.585-19.17-16.722-28.793-27.725c-1.425,8.243-98.563,33.575-100.235,24.464c-1.793-9.026,89.034-31.456,98.008-27.052
		c-6.651-7.819-13.244-16.526-19.656-26.263c-7.066,7.569-98.112,23.684-100.208,14.745c-0.427-9.03,85.386-22.948,97.193-19.432
		c-5.268-8.285-10.57-17.782-15.378-27.225c-8.593,6.282-100.183,8.394-100.988-0.735c1.009-8.907,86.226-9.708,98.14-4.716
		c-5.169-9.832-10.191-19.049-15.055-27.677c-9.443,6.039-99.432,8.101-100.385-0.976c1.031-8.792,84.234-9.671,96.997-4.992
		c-5.918-10.328-11.586-19.763-16.99-28.395c-8.979,6.172-99.856,8.265-100.733-0.843c1.031-8.797,84.328-9.672,97.054-4.979
		c-6.11-9.561-11.852-18.044-17.2-25.567c-6.467,6.863-101.801,9.033-102.153-0.183c0.973-8.966,87.352-9.732,98.747-4.558
		c-7.384-10.147-13.938-18.359-19.578-24.953c-6.969,6.196-102.324-2.123-101.611-11.321c1.975-8.577,84.013-0.463,96.504,5.502
		c-17.784-21.098-27.3-17.414-54.087-37.914c-54.971-38.873-46.571-50.728,8.239-11.592c28.242,20.05,31.754,26.701,47.678,42.83
		c-7.555-13.24-26.633-88.312-18.766-91.155c8.773-2.97,33.185,94.875,26.466,99.789c5.396,6.3,11.598,14.055,18.538,23.524
		c-5.282-13.309-10.155-93.957-1.631-95.474c9.189-1.131,14.413,99.032,6.999,102.933c5.159,7.306,10.678,15.505,16.531,24.679
		c-2.239-14.592,8.944-93.056,17.47-92.783c9.013,1.84-4.953,93.985-12.425,100.804c5.115,8.245,10.465,17.214,16.036,26.96
		c-1.206-13.494,21.264-93.67,29.99-92.303c8.798,2.768-18.035,94.268-26.356,98.721c4.866,8.663,9.893,17.91,15.071,27.775
		c1.613-14.22,35.368-87.653,43.601-84.969c7.875,4.629-30.485,85.865-39.872,92.127c4.793,9.361,9.922,18.266,15.082,26.295
		c-1.833-10.576,35.926-93.768,44.505-90.557c8.59,3.441-33.819,93.662-42.266,94.006c6.098,9.213,12.354,17.482,18.663,24.918
		c-1.129-11.363,35.848-92.779,44.439-89.748c8.243,4.133-32.345,90.124-41.281,93.396c9.526,10.785,19.126,19.704,28.436,27.065
		c-2.571-10.532,28.286-96.197,37.097-93.717c8.544,3.467-24.988,92.374-33.637,96.394c11.954,9.038,23.336,15.543,33.36,20.217
		c-1.993-12.37,21.154-95.495,30.031-94.041c8.385,3.471-16.322,87.778-24.599,96.461c30.232,12.835,52.899,12.166,53.174,12.156
		l0.228,5.73c-1.014,0.041-24.594,0.799-56.536-12.986C586.543,725.191,509.472,779.394,503.938,772.032z"/>
	<g id="_x36_">
		<rect x="1177.097" y="1419.605" style="fill:#255084;" width="228.752" height="213.656"/>
		<rect x="1177.097" y="1287.069" style="fill:#1D3F70;" width="228.752" height="256.487"/>
		<path style="fill:#255084;" d="M540.758,1441.9V570.54c0-35.77,28.997-64.768,64.768-64.768h1371.894
			c35.77,0,64.768,28.997,64.768,64.768V1441.9c0,35.77-28.997,64.768-64.768,64.768H605.526
			C569.755,1506.668,540.758,1477.671,540.758,1441.9z"/>
		<rect x="599.55" y="564.563" style="fill:#FFFFFF;" width="1383.848" height="813.429"/>
		
			<ellipse transform="matrix(0.7071 -0.7071 0.7071 0.7071 -642.216 1335.9054)" style="fill:#1D3F70;" cx="1291.473" cy="1443.176" rx="34.345" ry="34.345"/>
		<path style="fill:#1D3F70;" d="M1514.737,1688.802h-446.528c-15.337,0-27.77-12.433-27.77-27.77v0
			c0-15.337,12.433-27.77,27.77-27.77h446.528c15.337,0,27.77,12.433,27.77,27.77v0
			C1542.507,1676.369,1530.074,1688.802,1514.737,1688.802z"/>
	</g>
	<g id="_x35_">
		<rect x="1492.659" y="611.233" style="fill:#B0C7F5;" width="256.414" height="153.326"/>
		<rect x="1492.659" y="1177.054" style="fill:#B0C7F5;" width="256.414" height="153.326"/>
		<rect x="1492.659" y="988.447" style="fill:#B0C7F5;" width="256.414" height="153.326"/>
		<rect x="1492.659" y="799.84" style="fill:#B0C7F5;" width="256.414" height="153.326"/>
		
			<ellipse transform="matrix(0.7071 -0.7071 0.7071 0.7071 -11.6752 1347.6055)" style="fill:#FFFFFF;" cx="1620.866" cy="687.896" rx="44.514" ry="44.514"/>
		<path style="fill:#677CC1;" d="M1620.866,736.84c-26.988,0-48.944-21.956-48.944-48.944c0-26.987,21.956-48.944,48.944-48.944
			s48.944,21.956,48.944,48.944C1669.81,714.884,1647.854,736.84,1620.866,736.84z M1620.866,647.813
			c-22.102,0-40.083,17.981-40.083,40.083c0,22.102,17.981,40.083,40.083,40.083s40.083-17.981,40.083-40.083
			C1660.949,665.794,1642.968,647.813,1620.866,647.813z"/>
		<polygon style="fill:#677CC1;" points="1647.078,687.896 1605.3,663.775 1605.3,712.017 		"/>
		
			<ellipse transform="matrix(0.2298 -0.9732 0.9732 0.2298 393.423 2254.2036)" style="fill:#FFFFFF;" cx="1620.866" cy="878.546" rx="44.514" ry="44.514"/>
		<path style="fill:#677CC1;" d="M1620.866,927.49c-26.988,0-48.944-21.956-48.944-48.944c0-26.987,21.956-48.944,48.944-48.944
			s48.944,21.956,48.944,48.944C1669.81,905.534,1647.854,927.49,1620.866,927.49z M1620.866,838.463
			c-22.102,0-40.083,17.981-40.083,40.083c0,22.102,17.981,40.083,40.083,40.083s40.083-17.982,40.083-40.083
			C1660.949,856.444,1642.968,838.463,1620.866,838.463z"/>
		<polygon style="fill:#677CC1;" points="1647.078,878.546 1605.3,854.425 1605.3,902.667 		"/>
		
			<ellipse transform="matrix(0.2298 -0.9732 0.9732 0.2298 211.8499 2397.9038)" style="fill:#FFFFFF;" cx="1620.866" cy="1065.11" rx="44.514" ry="44.514"/>
		<path style="fill:#677CC1;" d="M1620.866,1114.054c-26.988,0-48.944-21.956-48.944-48.944c0-26.987,21.956-48.943,48.944-48.943
			s48.944,21.956,48.944,48.943C1669.81,1092.098,1647.854,1114.054,1620.866,1114.054z M1620.866,1025.027
			c-22.102,0-40.083,17.981-40.083,40.083s17.981,40.083,40.083,40.083s40.083-17.982,40.083-40.083
			S1642.968,1025.027,1620.866,1025.027z"/>
		<polygon style="fill:#677CC1;" points="1647.078,1065.11 1605.3,1040.989 1605.3,1089.231 		"/>
		<circle style="fill:#FFFFFF;" cx="1620.866" cy="1253.717" r="44.514"/>
		<path style="fill:#677CC1;" d="M1620.866,1302.661c-26.988,0-48.944-21.956-48.944-48.944c0-26.987,21.956-48.943,48.944-48.943
			s48.944,21.956,48.944,48.943C1669.81,1280.705,1647.854,1302.661,1620.866,1302.661z M1620.866,1213.634
			c-22.102,0-40.083,17.981-40.083,40.083s17.981,40.083,40.083,40.083s40.083-17.982,40.083-40.083
			S1642.968,1213.634,1620.866,1213.634z"/>
		<polygon style="fill:#677CC1;" points="1647.078,1253.717 1605.3,1229.596 1605.3,1277.838 		"/>
		<path style="fill:#BFD2F9;" d="M1840.734,643.848h-63.706c-2.573,0-4.659-2.086-4.659-4.659c0-2.573,2.086-4.659,4.659-4.659
			h63.706c2.573,0,4.659,2.086,4.659,4.659C1845.394,641.762,1843.308,643.848,1840.734,643.848z"/>
		<path style="fill:#BFD2F9;" d="M1874.756,716.909h-44.015c-2.573,0-4.659-2.086-4.659-4.659c0-2.573,2.086-4.659,4.659-4.659
			h44.015c2.574,0,4.659,2.086,4.659,4.659C1879.416,714.823,1877.33,716.909,1874.756,716.909z"/>
		<path style="fill:#BFD2F9;" d="M1812.183,716.909h-35.155c-2.573,0-4.659-2.086-4.659-4.659c0-2.573,2.086-4.659,4.659-4.659
			h35.155c2.574,0,4.659,2.086,4.659,4.659C1816.843,714.823,1814.757,716.909,1812.183,716.909z"/>
		<path style="fill:#BFD2F9;" d="M1881.181,692.555h-104.153c-2.573,0-4.659-2.086-4.659-4.659c0-2.573,2.086-4.659,4.659-4.659
			h104.153c2.573,0,4.659,2.086,4.659,4.659C1885.84,690.469,1883.755,692.555,1881.181,692.555z"/>
		<path style="fill:#BFD2F9;" d="M1955.442,643.848h-93.771c-2.573,0-4.659-2.086-4.659-4.659c0-2.573,2.086-4.659,4.659-4.659
			h93.771c2.573,0,4.659,2.086,4.659,4.659C1960.102,641.762,1958.016,643.848,1955.442,643.848z"/>
		<path style="fill:#BFD2F9;" d="M1955.442,741.262h-178.414c-2.573,0-4.659-2.086-4.659-4.659c0-2.573,2.086-4.659,4.659-4.659
			h178.414c2.573,0,4.659,2.086,4.659,4.659C1960.102,739.176,1958.016,741.262,1955.442,741.262z"/>
		<path style="fill:#BFD2F9;" d="M1955.442,716.909h-57.486c-2.574,0-4.659-2.086-4.659-4.659c0-2.573,2.086-4.659,4.659-4.659
			h57.486c2.573,0,4.659,2.086,4.659,4.659C1960.102,714.823,1958.016,716.909,1955.442,716.909z"/>
		<path style="fill:#BFD2F9;" d="M1955.442,692.555h-52.372c-2.573,0-4.659-2.086-4.659-4.659c0-2.573,2.086-4.659,4.659-4.659
			h52.372c2.573,0,4.659,2.086,4.659,4.659C1960.102,690.469,1958.016,692.555,1955.442,692.555z"/>
		<path style="fill:#BFD2F9;" d="M1955.442,668.201h-178.414c-2.573,0-4.659-2.086-4.659-4.659c0-2.573,2.086-4.659,4.659-4.659
			h178.414c2.573,0,4.659,2.086,4.659,4.659C1960.102,666.115,1958.016,668.201,1955.442,668.201z"/>
		<path style="fill:#BFD2F9;" d="M1955.442,929.869h-63.706c-2.574,0-4.659-2.086-4.659-4.659c0-2.573,2.086-4.659,4.659-4.659
			h63.706c2.573,0,4.659,2.086,4.659,4.659C1960.102,927.783,1958.016,929.869,1955.442,929.869z"/>
		<path style="fill:#BFD2F9;" d="M1901.729,856.809h-44.015c-2.573,0-4.659-2.086-4.659-4.659s2.086-4.659,4.659-4.659h44.015
			c2.574,0,4.659,2.086,4.659,4.659S1904.303,856.809,1901.729,856.809z"/>
		<path style="fill:#BFD2F9;" d="M1955.442,856.809h-35.155c-2.574,0-4.659-2.086-4.659-4.659s2.086-4.659,4.659-4.659h35.155
			c2.573,0,4.659,2.086,4.659,4.659S1958.016,856.809,1955.442,856.809z"/>
		<path style="fill:#BFD2F9;" d="M1955.442,881.162H1851.29c-2.574,0-4.659-2.086-4.659-4.659c0-2.573,2.086-4.659,4.659-4.659
			h104.153c2.573,0,4.659,2.086,4.659,4.659C1960.102,879.076,1958.016,881.162,1955.442,881.162z"/>
		<path style="fill:#BFD2F9;" d="M1870.8,929.869h-93.771c-2.573,0-4.659-2.086-4.659-4.659c0-2.573,2.086-4.659,4.659-4.659h93.771
			c2.573,0,4.659,2.086,4.659,4.659C1875.459,927.783,1873.373,929.869,1870.8,929.869z"/>
		<path style="fill:#BFD2F9;" d="M1955.442,832.455h-178.414c-2.573,0-4.659-2.086-4.659-4.659c0-2.573,2.086-4.659,4.659-4.659
			h178.414c2.573,0,4.659,2.086,4.659,4.659C1960.102,830.369,1958.016,832.455,1955.442,832.455z"/>
		<path style="fill:#BFD2F9;" d="M1834.514,856.809h-57.486c-2.573,0-4.659-2.086-4.659-4.659s2.086-4.659,4.659-4.659h57.486
			c2.573,0,4.659,2.086,4.659,4.659S1837.088,856.809,1834.514,856.809z"/>
		<path style="fill:#BFD2F9;" d="M1829.401,881.162h-52.373c-2.573,0-4.659-2.086-4.659-4.659c0-2.573,2.086-4.659,4.659-4.659
			h52.373c2.573,0,4.659,2.086,4.659,4.659C1834.06,879.076,1831.974,881.162,1829.401,881.162z"/>
		<path style="fill:#BFD2F9;" d="M1955.442,905.516h-178.414c-2.573,0-4.659-2.086-4.659-4.659c0-2.573,2.086-4.659,4.659-4.659
			h178.414c2.573,0,4.659,2.086,4.659,4.659C1960.102,903.43,1958.016,905.516,1955.442,905.516z"/>
		<path style="fill:#BFD2F9;" d="M1955.442,1021.062h-63.706c-2.574,0-4.659-2.086-4.659-4.659c0-2.574,2.086-4.659,4.659-4.659
			h63.706c2.573,0,4.659,2.086,4.659,4.659C1960.102,1018.977,1958.016,1021.062,1955.442,1021.062z"/>
		<path style="fill:#BFD2F9;" d="M1901.729,1094.123h-44.015c-2.573,0-4.659-2.086-4.659-4.659s2.086-4.659,4.659-4.659h44.015
			c2.574,0,4.659,2.086,4.659,4.659S1904.303,1094.123,1901.729,1094.123z"/>
		<path style="fill:#BFD2F9;" d="M1955.442,1094.123h-35.155c-2.574,0-4.659-2.086-4.659-4.659s2.086-4.659,4.659-4.659h35.155
			c2.573,0,4.659,2.086,4.659,4.659S1958.016,1094.123,1955.442,1094.123z"/>
		<path style="fill:#BFD2F9;" d="M1955.442,1069.769H1851.29c-2.574,0-4.659-2.086-4.659-4.659s2.086-4.659,4.659-4.659h104.153
			c2.573,0,4.659,2.086,4.659,4.659S1958.016,1069.769,1955.442,1069.769z"/>
		<path style="fill:#BFD2F9;" d="M1870.8,1021.062h-93.771c-2.573,0-4.659-2.086-4.659-4.659c0-2.574,2.086-4.659,4.659-4.659
			h93.771c2.573,0,4.659,2.086,4.659,4.659C1875.459,1018.977,1873.373,1021.062,1870.8,1021.062z"/>
		<path style="fill:#BFD2F9;" d="M1955.442,1118.476h-178.414c-2.573,0-4.659-2.086-4.659-4.659c0-2.573,2.086-4.659,4.659-4.659
			h178.414c2.573,0,4.659,2.086,4.659,4.659C1960.102,1116.391,1958.016,1118.476,1955.442,1118.476z"/>
		<path style="fill:#BFD2F9;" d="M1834.514,1094.123h-57.486c-2.573,0-4.659-2.086-4.659-4.659s2.086-4.659,4.659-4.659h57.486
			c2.573,0,4.659,2.086,4.659,4.659S1837.088,1094.123,1834.514,1094.123z"/>
		<path style="fill:#BFD2F9;" d="M1829.401,1069.769h-52.373c-2.573,0-4.659-2.086-4.659-4.659s2.086-4.659,4.659-4.659h52.373
			c2.573,0,4.659,2.086,4.659,4.659S1831.974,1069.769,1829.401,1069.769z"/>
		<path style="fill:#BFD2F9;" d="M1955.442,1045.415h-178.414c-2.573,0-4.659-2.086-4.659-4.659s2.086-4.659,4.659-4.659h178.414
			c2.573,0,4.659,2.086,4.659,4.659S1958.016,1045.415,1955.442,1045.415z"/>
		<path style="fill:#BFD2F9;" d="M1840.734,1307.083h-63.706c-2.573,0-4.659-2.086-4.659-4.659c0-2.573,2.086-4.659,4.659-4.659
			h63.706c2.573,0,4.659,2.086,4.659,4.659C1845.394,1304.998,1843.308,1307.083,1840.734,1307.083z"/>
		<path style="fill:#BFD2F9;" d="M1874.756,1234.022h-44.015c-2.573,0-4.659-2.086-4.659-4.659c0-2.574,2.086-4.659,4.659-4.659
			h44.015c2.574,0,4.659,2.086,4.659,4.659C1879.416,1231.937,1877.33,1234.022,1874.756,1234.022z"/>
		<path style="fill:#BFD2F9;" d="M1812.183,1234.022h-35.155c-2.573,0-4.659-2.086-4.659-4.659c0-2.574,2.086-4.659,4.659-4.659
			h35.155c2.574,0,4.659,2.086,4.659,4.659C1816.843,1231.937,1814.757,1234.022,1812.183,1234.022z"/>
		<path style="fill:#BFD2F9;" d="M1881.181,1258.376h-104.153c-2.573,0-4.659-2.086-4.659-4.659c0-2.573,2.086-4.659,4.659-4.659
			h104.153c2.573,0,4.659,2.086,4.659,4.659C1885.84,1256.291,1883.755,1258.376,1881.181,1258.376z"/>
		<path style="fill:#BFD2F9;" d="M1955.442,1307.083h-93.771c-2.573,0-4.659-2.086-4.659-4.659c0-2.573,2.086-4.659,4.659-4.659
			h93.771c2.573,0,4.659,2.086,4.659,4.659C1960.102,1304.998,1958.016,1307.083,1955.442,1307.083z"/>
		<path style="fill:#BFD2F9;" d="M1955.442,1209.669h-178.414c-2.573,0-4.659-2.086-4.659-4.659s2.086-4.659,4.659-4.659h178.414
			c2.573,0,4.659,2.086,4.659,4.659S1958.016,1209.669,1955.442,1209.669z"/>
		<path style="fill:#BFD2F9;" d="M1955.442,1234.022h-57.486c-2.574,0-4.659-2.086-4.659-4.659c0-2.574,2.086-4.659,4.659-4.659
			h57.486c2.573,0,4.659,2.086,4.659,4.659C1960.102,1231.937,1958.016,1234.022,1955.442,1234.022z"/>
		<path style="fill:#BFD2F9;" d="M1955.442,1258.376h-52.372c-2.573,0-4.659-2.086-4.659-4.659c0-2.573,2.086-4.659,4.659-4.659
			h52.372c2.573,0,4.659,2.086,4.659,4.659C1960.102,1256.291,1958.016,1258.376,1955.442,1258.376z"/>
		<path style="fill:#BFD2F9;" d="M1955.442,1282.73h-178.414c-2.573,0-4.659-2.086-4.659-4.659c0-2.574,2.086-4.659,4.659-4.659
			h178.414c2.573,0,4.659,2.086,4.659,4.659C1960.102,1280.645,1958.016,1282.73,1955.442,1282.73z"/>
	</g>
	<g id="_x34_">
		
			<ellipse transform="matrix(0.8566 -0.5161 0.5161 0.8566 -566.8421 548.8898)" style="fill:#FCB4B4;" cx="703.926" cy="1294.085" rx="56.76" ry="56.76"/>
		<path style="fill:#FCB4B4;" d="M1418.064,1322.945h-118.638c-18.058,0-32.696-14.639-32.696-32.696v0
			c0-18.058,14.639-32.696,32.696-32.696h118.638c18.058,0,32.696,14.639,32.696,32.696v0
			C1450.761,1308.306,1436.122,1322.945,1418.064,1322.945z"/>
		<path style="fill:#BFD2F9;" d="M1212.502,1260.621h-146.044c-2.573,0-4.659-2.086-4.659-4.659s2.086-4.659,4.659-4.659h146.044
			c2.573,0,4.659,2.086,4.659,4.659S1215.075,1260.621,1212.502,1260.621z"/>
		<path style="fill:#BFD2F9;" d="M1035.059,1260.621H816.566c-2.573,0-4.659-2.086-4.659-4.659s2.086-4.659,4.659-4.659h218.493
			c2.573,0,4.659,2.086,4.659,4.659S1037.632,1260.621,1035.059,1260.621z"/>
		<path style="fill:#BFD2F9;" d="M1212.502,1336.867H996.854c-2.573,0-4.659-2.086-4.659-4.659s2.086-4.659,4.659-4.659h215.648
			c2.573,0,4.659,2.086,4.659,4.659S1215.075,1336.867,1212.502,1336.867z"/>
		<path style="fill:#BFD2F9;" d="M955.414,1336.867H816.566c-2.573,0-4.659-2.086-4.659-4.659s2.086-4.659,4.659-4.659h138.848
			c2.573,0,4.659,2.086,4.659,4.659S957.987,1336.867,955.414,1336.867z"/>
		<path style="fill:#BFD2F9;" d="M1177.097,1298.745H816.566c-2.573,0-4.659-2.086-4.659-4.659s2.086-4.659,4.659-4.659h360.531
			c2.573,0,4.659,2.086,4.659,4.659S1179.67,1298.745,1177.097,1298.745z"/>
		<g id="_x31_6_4_">
			<path style="fill:#FFFFFF;" d="M1301.249,1273.778c6.29-6.134,14.709-3.34,19.594,2.996c5.148-6.372,13.131-9.038,19.613-2.842
				c6.131,6.282,3.341,14.707-2.993,19.593c0,0-16.751,16.617-16.751,16.617l-16.621-16.747
				C1297.706,1288.188,1295.047,1280.327,1301.249,1273.778z"/>
		</g>
	</g>
	<rect id="_x33_" x="647.166" y="611.233" style="fill:#B0C7F5;" width="803.595" height="579.116"/>
	<g id="_x32_">
		<rect x="647.166" y="1141.756" style="fill:#255084;" width="803.595" height="67.56"/>
		<path style="fill:#BFD2F9;" d="M1404.168,1180.196h-219.622c-2.573,0-4.659-2.086-4.659-4.659s2.086-4.659,4.659-4.659h219.622
			c2.573,0,4.659,2.086,4.659,4.659S1406.742,1180.196,1404.168,1180.196z"/>
		<path style="fill:#EB5648;" d="M1184.546,1180.196H721.715c-2.573,0-4.659-2.086-4.659-4.659s2.086-4.659,4.659-4.659h462.831
			c2.573,0,4.659,2.086,4.659,4.659S1187.119,1180.196,1184.546,1180.196z"/>
		<circle style="fill:#677CC1;" cx="1184.547" cy="1175.536" r="14.918"/>
		<path style="fill:#BFD2F9;" d="M675.122,1195.338c-2.573,0-4.659-2.086-4.659-4.659v-30.285c0-2.574,2.086-4.659,4.659-4.659
			c2.573,0,4.659,2.086,4.659,4.659v30.285C679.781,1193.253,677.695,1195.338,675.122,1195.338z"/>
		<path style="fill:#BFD2F9;" d="M691.93,1195.338c-2.573,0-4.659-2.086-4.659-4.659v-30.285c0-2.574,2.086-4.659,4.659-4.659
			c2.573,0,4.659,2.086,4.659,4.659v30.285C696.589,1193.253,694.503,1195.338,691.93,1195.338z"/>
	</g>
	<g id="_x31__4_">
		<path style="fill:#CE3932;" d="M977.546,856.295c88.528,105.586,241.644,109.485,342.15-96.768c0,0-23.329,2.069-34.891-7.867
			c-12.274-10.547-15.398-26.78-15.398-26.78c-195.519,140.271-179.675-9.018-325.13-55.691
			C944.277,669.19,975.713,853.252,977.546,856.295z"/>
		<path style="fill:#9358E0;" d="M1060.167,1141.755h-343.4c2.907-16.28,5.945-32.774,9.3-49.211
			c7.324-35.905,16.224-71.548,28.804-104.052c9.607-24.806,21.367-47.786,36.221-67.662
			c77.139,39.231,179.812,59.592,261.722,66.852c0.438,0.047,0.866,0.084,1.295,0.112c0.121,0.019,0.242,0.028,0.363,0.037
			c0.168,4.147,0.335,8.312,0.494,12.487c0.214,5.191,0.419,10.4,0.624,15.618c0.28,7.119,0.559,14.257,0.829,21.405
			c0.736,19.122,1.454,38.318,2.134,57.449C1059.114,1110.519,1059.655,1126.211,1060.167,1141.755z"/>
		<path style="fill:#F99370;" d="M930.59,665.761c2.48-34.028,10.901-95.699-15.842-107.599
			c-18.748-7.638-42.215,7.435-37.476,29.269c1.789-0.998,4.09,60.665-0.636,77.498C825.438,677.387,974.391,735.112,930.59,665.761
			z"/>
		<path style="fill:#E57D61;" d="M876.905,584.611c0.083,0.94,0.198,1.896,0.367,2.82c1.292-0.761,2.999,33.283,1.732,57.861
			c22.539,11.721,48.529,8.463,53.292,7.744c-0.266-35.908,8.297-81.344-17.552-94.873
			C897.126,549.503,874.77,564.797,876.905,584.611z"/>
		<path style="fill:#7640CC;" d="M831.163,1141.755h-5.051c2.227-10.111,3.923-16.336,4.976-18.106v-0.009
			c0.186-0.326,0.363-0.503,0.513-0.522c0.121,0.103,0.224,0.307,0.307,0.624C832.411,1125.708,832.132,1131.886,831.163,1141.755z"
			/>
		<path style="fill:#EB5648;" d="M726.559,1093.145c79.942,47.221,256.103,41.691,326.506,6.68
			c23.556-13.324,17.457-97.113,5.192-178.683c-16.921-108.666-52.579-184.536-111.327-251.713
			c-0.649-0.183-10.712-3.337-16.311-3.637c1.387,9.944,2.414,39.031-53.97-0.859c-0.204,0.223-15.477-0.071-19.945,2.486
			c-4.474,4.28-55.713,46.651-56.45,52.67c-2.16,17.995-15.889,63.484-30.542,116.353c-16.861,61.794-34.149,125.112-38.208,181.634
			C730.087,1041.55,709.483,1073.132,726.559,1093.145z"/>
		<path style="fill:#CE3932;" d="M857.497,667.683c20.127,26.778,99.581,62.983,89.455,1.768c-0.662-0.221-10.694-3.354-16.33-3.664
			c0.3,1.603,8.083,43.612-53.984-0.865C876.751,665.341,861.383,664.356,857.497,667.683z"/>
		<path style="fill:#1D3F70;" d="M818.248,678.797c6.043-11.916,30.659-19.551,39.249-11.113
			c40.188,39.476,77.382,85.813,88.025,100.072c2.13-1.976,7.029-1.213,8.041-3.836c13.982-36.246-6.633-94.492-6.633-94.492
			c23.293-5.615,43.083,13.92,53.896,26.846c16.111,0.297,34.259,17.626,26.219,43.705c-6.32,20.5-17.332,40.469-35.487,53.084
			c19.883,30.368,45.993,79.269,28.004,92.55c-7.446,9.889-28.728,17.405-33.433-6.972c-3.89-20.156-10.221-50.777-15.93-69.443
			c-1.969,0.624-4.259,0.876-6.929,0.624c0.022,0.008,8.587,68.177,26.943,108.608c18.344,40.42-35.413,41.279-54.963,30.33
			c-15.342-8.592-18.141-96.63-6.395-146.486C915.882,797.811,702.637,709.456,818.248,678.797z"/>
		<path style="fill:#8C4225;" d="M974.43,541.413c0,0,0.586-28.426-7.533-48.348l-16.527,7.345L974.43,541.413z"/>
		<path style="fill:#F99370;" d="M992.52,581.755c-1.353,44.864-55.687,72.187-94.378,60.063
			c-54.738-13.633-67.159-94.058-43.907-137.807c15.075-31.195,60.343-46.977,87.377-22.107
			c13.614,12.124,19.371,30.287,25.968,47.719C975.585,546.549,995.148,560.807,992.52,581.755z"/>
		<path style="fill:#C16256;" d="M935.54,549.055c0.978-1.753,0.349-3.967-1.404-4.945c-1.753-0.978-3.968-0.349-4.945,1.404
			c-0.978,1.754-0.349,3.968,1.404,4.946C932.348,551.438,934.562,550.809,935.54,549.055z"/>
		<path style="fill:#C16256;" d="M966.278,545.105c0.978-1.753,0.349-3.967-1.404-4.945c-1.753-0.978-3.967-0.349-4.945,1.404
			c-0.978,1.753-0.349,3.967,1.404,4.945C963.086,547.487,965.3,546.858,966.278,545.105z"/>
		<path style="fill:#C16256;" d="M958.045,575.849c-2.855,0.61-6.04,0.583-8.551-0.331c-0.714-0.261-1.082-1.05-0.822-1.763
			c0.259-0.716,1.049-1.08,1.764-0.824c4.547,1.655,11.165-0.403,12.138-2.453c0.341-0.723-0.619-1.487-1.485-2.001
			c-7.629-4.522-12.287-19.474-12.484-20.107c-0.223-0.726,0.185-1.495,0.912-1.718c0.711-0.241,1.497,0.183,1.72,0.91
			c0.043,0.146,4.54,14.568,11.253,18.549c3.661,2.169,3.018,4.6,2.57,5.544C964.122,573.635,961.295,575.155,958.045,575.849z"/>
		<path style="fill:#E57D61;" d="M961.26,512.692c-28.444-12.657-50.02-2.697-73.583-4.215c0,0,2.594,30.165-28.486,50.402
			c0,0-24.895-18.741-4.958-54.865C879.944,455.928,944.615,458.536,961.26,512.692z"/>
		<path style="fill:#8C4225;" d="M977.741,453.058c-10.464-22.745-43.54-36.151-73.531-9.663
			c-23.091,20.394-47.156,19.312-47.51,41.702c-45.485,18.627-25.15,68.778-25.15,68.778l22.513-1.804
			c26.387-19.769,26.759-50.287,26.759-50.287l-0.006-0.005c24.587,0.566,50.868-9.179,76.583,2.18
			C975.744,511.519,989.437,478.478,977.741,453.058z"/>
		<path style="fill:#F99370;" d="M827.676,571.841c1.989,11.614,11.176,19.732,20.52,18.132c9.344-1.6,15.307-12.312,13.318-23.927
			c-1.989-11.614-11.176-19.732-20.52-18.132C831.65,549.514,825.687,560.227,827.676,571.841z"/>
		<path style="fill:#C16256;" d="M850.258,557.414c-0.356-0.153-8.738-3.74-13.672,0.483c-1.26,1.079-2.129,2.573-2.657,4.42
			c-0.008,0.015-0.009,0.034-0.016,0.049c-0.044,0.156-0.105,0.294-0.143,0.456c-0.001,0.006-0.005,0.011-0.006,0.017
			c-0.001,0.004,0.001,0.007,0.001,0.01c-0.817,3.443-0.465,8.099,1.074,13.937c0.189,0.713,0.903,1.148,1.618,0.995
			c0.021-0.004,0.041-0.009,0.064-0.015c0.734-0.193,1.173-0.945,0.979-1.68c-1.26-4.783-1.656-8.641-1.245-11.514
			c7.895,1.702,11.497,10.835,11.535,10.932c0.245,0.641,0.919,0.992,1.569,0.854c0.071-0.015,0.137-0.034,0.205-0.061
			c0.711-0.27,1.068-1.063,0.796-1.772c-0.172-0.455-4.118-10.542-13.357-12.616c0.358-0.766,0.797-1.429,1.368-1.919
			c3.633-3.105,10.716-0.086,10.787-0.055c0.692,0.303,1.504-0.015,1.81-0.712C851.27,558.527,850.953,557.717,850.258,557.414z"/>
		<path style="fill:#C16256;" d="M954.159,584.521c-4.613-3.681-10.707-3.727-13.596-0.102c-1.435,1.798-1.873,4.193-1.211,6.756
			c0.615,2.432,2.153,4.724,4.333,6.458c2.199,1.742,4.771,2.74,7.278,2.805c0.764,0.019,1.491-0.047,2.171-0.186
			c1.696-0.363,3.122-1.221,4.156-2.507c1.016-1.277,1.491-2.823,1.491-4.473C958.781,590.233,957.141,586.897,954.159,584.521z
			 M955.314,596.179c-0.932,1.174-2.451,1.799-4.287,1.752c-1.957-0.056-4.007-0.848-5.768-2.264
			c-1.761-1.398-2.991-3.215-3.485-5.116c-0.447-1.771-0.177-3.401,0.755-4.575c0.671-0.848,1.64-1.388,2.74-1.621
			c2.19-0.475,4.976,0.261,7.325,2.125C956.116,589.301,957.346,593.644,955.314,596.179z"/>
		<path style="fill:#C16256;" d="M917.925,540.369c-0.354,0-0.708-0.132-0.981-0.397c-0.558-0.541-0.574-1.431-0.034-1.991
			c0.318-0.329,7.941-8.071,22.008-9.384c0.77-0.069,1.462,0.497,1.534,1.273c0.073,0.775-0.497,1.462-1.273,1.534
			c-12.976,1.212-20.172,8.465-20.243,8.538C918.66,540.226,918.293,540.369,917.925,540.369z"/>
		<path style="fill:#C16256;" d="M966.737,532.69c-0.254,0-0.511-0.068-0.743-0.212c-5.672-3.525-14.421-2.528-14.508-2.518
			c-0.773,0.096-1.475-0.459-1.568-1.231c-0.093-0.773,0.457-1.475,1.23-1.568c0.398-0.048,9.811-1.132,16.335,2.922
			c0.661,0.411,0.864,1.28,0.453,1.942C967.669,532.454,967.209,532.69,966.737,532.69z"/>
		<path style="fill:#F99370;" d="M1269.407,724.881c0,0,27.441-56.584,56.744-62.501c0,0,78.827,60.827-6.455,97.147
			C1319.696,759.527,1279.115,771.41,1269.407,724.881z"/>
		<path style="fill:#163356;" d="M1363.581,730.413v-95.516c0-4.836-3.923-8.759-8.769-8.759h-48.615
			c-0.96,0-1.901,0.168-2.777,0.447c-1.985,0.596-3.354,1.687-4.277,3.131c-1.072,1.444-1.696,3.243-1.696,5.181v0.578
			c-0.047,0.485-0.075,0.978-0.093,1.482v0.009c-0.047,1.407,0,2.842,0.093,4.249v99.169c0,1.314,0.28,2.553,0.801,3.672
			c1.389,3.001,4.426,5.079,7.949,5.079h48.615c0.317,0,0.624-0.009,0.932-0.047c2.73-0.242,4.547-1.379,5.759-3.047
			c1.295-1.528,2.078-3.504,2.078-5.656v-0.997C1363.851,736.461,1363.683,733.265,1363.581,730.413z"/>
		<path style="fill:#1D3F70;" d="M1350.852,626.138h-48.615c-0.867,0-1.696,0.13-2.488,0.373c-0.112,0.028-0.224,0.056-0.326,0.093
			c-1.715,0.578-3.196,1.687-4.259,3.131c-0.009,0.009-0.019,0.028-0.028,0.037c-1.044,1.435-1.659,3.206-1.659,5.125v105.487
			c0,1.314,0.289,2.553,0.801,3.672c1.398,3.001,4.436,5.079,7.958,5.079h48.615c4.836,0,8.75-3.914,8.75-8.75V634.897
			C1359.602,630.061,1355.688,626.138,1350.852,626.138z M1355.856,734.057h-58.623v-92.841h58.623V734.057z"/>
		<path style="fill:#306599;" d="M1318.912,634.221c-0.007,1.506-2.296,1.506-2.303,0
			C1316.616,632.716,1318.906,632.716,1318.912,634.221z"/>
		<path style="fill:#255084;" d="M1336.042,634.97h-14.252c-0.236,0-0.427-0.191-0.427-0.428c0.025-0.347-0.131-1.08,0.427-1.069
			h14.252c0.546-0.011,0.417,0.722,0.427,1.069C1336.469,634.778,1336.278,634.97,1336.042,634.97z"/>
		<path style="fill:#255084;" d="M1350.852,626.142c-51.472,0-57.377,15.077-57.377,15.077c-0.396-6.951-0.076-14.62,8.758-15.077
			C1302.233,626.142,1350.852,626.142,1350.852,626.142z"/>
		<rect x="1297.233" y="641.22" style="fill:#647DBC;" width="58.619" height="92.838"/>
		<path style="fill:#F99370;" d="M1359.362,715.938c0.711-0.157,0.866-0.214,1.226-0.319c0.31-0.094,0.598-0.193,0.88-0.296
			c0.563-0.205,1.098-0.438,1.625-0.69c1.048-0.511,2.056-1.142,2.983-1.897c0.928-0.748,1.771-1.632,2.439-2.598
			c0.695-0.961,1.167-1.993,1.528-3.018c1.069-3.035-0.967-6.188-4.548-7.042c-2.524-0.602-5.142,0.099-6.842,1.628l-2.58,2.332
			c-0.051,0.046,0.054-0.062,0.031-0.045c0,0-0.042,0.04-0.118,0.076l-0.111,0.046c-0.016,0.005-0.023,0.008-0.023,0.008l0.302-0.07
			c-3.905,0.799-6.352,4.108-5.466,7.39C1351.574,714.725,1355.458,716.738,1359.362,715.938z"/>
		<path style="fill:#F99370;" d="M1360.278,703.932c0.552-0.233,0.706-0.315,1.012-0.463l0.76-0.399
			c0.492-0.27,0.959-0.555,1.42-0.861c0.919-0.612,1.807-1.313,2.646-2.137c0.838-0.816,1.615-1.807,2.247-2.906
			c0.643-1.104,1.066-2.375,1.282-3.651c0.5-3.358-2.315-6.378-6.287-6.747c-3.972-0.368-7.598,2.055-8.098,5.412
			c-0.003-0.157,0.12-0.2-0.118,0.047c-0.117,0.111-0.295,0.263-0.524,0.415c-0.114,0.075-0.239,0.153-0.36,0.219l-0.17,0.09
			c-0.009,0.008-0.174,0.077,0.052-0.017c-3.627,1.478-5.194,5.138-3.499,8.175C1352.337,704.147,1356.651,705.411,1360.278,703.932
			z"/>
		<path style="fill:#F99370;" d="M1361.638,691.385l5.306-4.287c2.915-2.354,3.052-6.226,0.307-8.648
			c-2.745-2.422-7.333-2.476-10.247-0.122l-5.306,4.287c-2.914,2.355-3.052,6.226-0.307,8.648
			C1354.135,693.686,1358.723,693.74,1361.638,691.385z"/>
		<path style="fill:#F99370;" d="M1361.112,680.305l5.306-4.287c2.914-2.354,3.052-6.226,0.306-8.648
			c-2.745-2.422-7.333-2.476-10.247-0.121l-5.306,4.287c-2.914,2.354-3.052,6.227-0.306,8.648
			C1353.609,682.605,1358.197,682.66,1361.112,680.305z"/>
		<path style="fill:#F99370;" d="M1273.777,728.72c3.677,4.226,17.023,4.5,17.023-1.227c0-18.431,8.3-33.176,12.838-39.181
			c4.851-6.216-3.452-13.477-9.713-7.36C1293.925,680.952,1267.887,702.216,1273.777,728.72z"/>
		<path style="fill:#CE3932;" d="M784.018,705.457c0,0-101.608,110.169-48.508,246.237
			c50.216,128.679,225.985,162.912,333.585,76.202c0,0-24.489-31.212-11.478-48.536c0,0-86.78,11.388-141.103-34.072
			c-46.273-38.724-35.613-109.281-30.3-161.593C886.215,783.695,796.031,743.892,784.018,705.457z"/>
		<path style="fill:#F99370;" d="M1098.095,955.441c0,0,21.866-14.56,24.243-7.97c2.833,7.855-20.806,20.724-20.806,20.724
			c8.204-0.869,18.21-5.094,27.665-9.327c9.154-4.098,18.16-8.097,26.907-13.581c22.561,0.819-25.869,29.151-30.675,33.558
			c0.063,0.115,0.055,0.101,0.118,0.216c15.247-3.521,30.312-7.949,44.865-13.712c23.154,6.268-36.444,24.348-42.636,27.169
			c0.022,0.06,0.019,0.052,0.042,0.113c14.936-0.701,29.781-3.354,44.102-7.673c22.88,8.45-39.124,21.864-46.007,22.54
			c-0.014,0.061-0.029,0.121-0.044,0.182c11.87,1.273,23.897,0.946,35.797-0.043c20.556,11.003-35.188,14.492-41.463,14.32
			c-3.865,1.821-34.974,5.88-51.107,5.939c-15.919,0.058-23.533-38.385-11.478-48.536
			C1057.617,979.36,1073.241,971.289,1098.095,955.441z"/>
	</g>
</g>
</svg>
